<svg xmlns="http://www.w3.org/2000/svg" viewBox="0 0 324.36 374.49"><defs><style>.cls-1{fill:#ef476f;}</style></defs><title>Fichier 11</title><g id="Calque_2" data-name="Calque 2"><g id="Phone_Services" data-name="Phone Services"><path class="cls-1" d="M.58,174.8a231.72,231.72,0,0,0,1.57,25.31c1,8.44,2.42,16.85,4.21,25.12C32.61,299.92,85.59,381.36,161,374c29.21-3.25,47.55-34.2,69.29-53.53,4.7-4.81,9.38-9.59,14.1-14.27,14.13-14.05,28.56-27.3,44.63-38.37a189.68,189.68,0,0,1,16.67-10.29c23.1-17.11,21.06-53.76,13.59-81.45-2-7.87-3.93-15.77-5.76-23.66C300.93,106.9,293.45,45,253.38,27.08a305,305,0,0,0-37.3-14.3c-6.3-2-12.64-3.81-18.93-5.34C125-14.46,24.46,10,3.61,107.63A192.75,192.75,0,0,0,.53,130.37a190.65,190.65,0,0,0-.32,23.19C.16,160.63.28,167.73.58,174.8Z"/></g></g></svg>