<svg xmlns="http://www.w3.org/2000/svg" viewBox="0 0 380.86 469.92"><defs><style>.cls-1{fill:#ef476f;}</style></defs><title>wagFichier 1</title><g id="Calque_2" data-name="Calque 2"><g id="Phone_Clients" data-name="Phone Clients"><path class="cls-1" d="M0,208.66a459.34,459.34,0,0,0,5.66,59.16q1.5,9.06,3.43,18c7.73,35.63,20.84,69.62,41.22,97q5.44,6.84,11.25,13.15c23.19,25.23,50.31,44.2,78.5,60.11a105.28,105.28,0,0,0,16.53,6.44c31.49,10.24,65.63,12,95.19-8.71,19.37-14.21,35.16-31.39,57.14-37.46a116,116,0,0,0,11.9-4.79,71.17,71.17,0,0,0,11.48-6.9c33.12-24.87,31.08-72.84,34.65-112.52a139.5,139.5,0,0,1,2.82-18.87c1.18-5.89,2.37-11.84,3.5-17.83s2.18-12,3.12-18.1c6.87-35.8,8.4-76.07-14.53-104.5q-5.1-6.51-9.6-13.26c-11.81-18.72-19.45-40-26.08-61.95-7.13-24.87-28.53-34.94-48.41-40.86-45.86-12.44-93.26-28.43-136.56-4-5.46,2.8-10.82,5.93-16.07,9.22s-10.37,6.75-15.35,10.2c-4.21,2.88-8.31,6-12.3,9.28-12,9.85-23.1,21.27-33.86,32.84-4.23,4.68-8.23,9.57-12.09,14.61C40,104,29.71,120.43,19.12,136.46a138.17,138.17,0,0,0-8.66,18.15,141.82,141.82,0,0,0-9.29,41.08Q.39,202.14,0,208.66Z"/></g></g></svg>