<svg xmlns="http://www.w3.org/2000/svg" viewBox="0 0 327.96 413.62"><defs><style>.cls-1{fill:#ef476f;}</style></defs><title>Fichier 12</title><g id="Calque_2" data-name="Calque 2"><g id="Phone_Services" data-name="Phone Services"><path class="cls-1" d="M327.22,216.71c2.77,27.16-2.47,49.91-12.6,69.36A127.62,127.62,0,0,1,303,304.37c-17.91,24.19-44.1,35.94-68.87,49.36-21.24,11.74-36.81,31.88-57.33,46.14C154.8,415,130,415.81,106.56,411.05a141.89,141.89,0,0,1-18.33-7.93,148.47,148.47,0,0,1-17.66-10.8A157.47,157.47,0,0,1,34.1,354.45a190.69,190.69,0,0,1-23.7-47.72,199.35,199.35,0,0,1-6.56-25.37c-5.76-27.91-4.59-55.15.55-81.7,1.71-8.85,3.86-17.62,6.35-26.32C23.86,133.1,37.3,94.51,59.25,57.6,93.93-.28,161.17-14.54,212.86,14.83a106.19,106.19,0,0,1,18.72,12.81C249,42.36,263.05,62.08,277.77,80.55a274.69,274.69,0,0,1,16,24.62c14.66,24.57,22.45,53.1,31.59,80.93A185.07,185.07,0,0,1,327.22,216.71Z"/></g></g></svg>