<svg xmlns="http://www.w3.org/2000/svg" viewBox="0 0 254.58 271.98"><defs><style>.cls-1{fill:#ef476f;}</style></defs><title>Fichier 8</title><g id="Calque_2" data-name="Calque 2"><g id="Phone_Services" data-name="Phone Services"><path class="cls-1" d="M253.64,117.72a73.61,73.61,0,0,1,.94,11.16,76.51,76.51,0,0,1-7.13,32.57C234.34,188.93,219,213.09,204,240.57c-6.78,12.79-18.54,20.84-31.49,24.68a108.94,108.94,0,0,1-13.82,4c-33,7.22-71,.17-99.64-19.67a115.87,115.87,0,0,1-11.68-9.27C13.61,210.25-7.19,163.82,2.3,116,4.57,104.6,7.28,94.18,7.78,83c.37-4.62.7-9.23,1-13.85S9.54,60,10,55.33c1.81-24.16,16.74-45,40.26-49.27,45.23-9,90.46-7.11,134.33,0a64,64,0,0,1,13.19,7.09c28,19.61,38.13,59.36,52.21,90.05A91.89,91.89,0,0,1,253.64,117.72Z"/></g></g></svg>