<svg xmlns="http://www.w3.org/2000/svg" viewBox="0 0 264.87 266.48"><defs><style>.cls-1{fill:#ef476f;}</style></defs><title>Fichier 10</title><g id="Calque_2" data-name="Calque 2"><g id="Phone_Services" data-name="Phone Services"><path class="cls-1" d="M264.8,131.71a47.67,47.67,0,0,1-2.64,18.74,51.68,51.68,0,0,1-8.63,15c-13.93,16.89-32.94,28.2-48.36,43.62-11.31,10.79-15.94,26.21-26.73,37.52C143,282,84.9,264.56,49.9,237.3a98.22,98.22,0,0,1-13.12-9,97,97,0,0,1-11.42-10.86A91.24,91.24,0,0,1,16,205C7.29,191.06.1,175.64.1,159.71.61,120.13-6.07,61,37.61,43,58.69,34.3,81.82,30.7,102.3,20.41q6.6-3.12,13-6.69T128.07,6A61,61,0,0,1,141.4,1.19a44.61,44.61,0,0,1,28.84,2.88,132.09,132.09,0,0,1,17.83,6.85,133.52,133.52,0,0,1,75.51,102.69A135.08,135.08,0,0,1,264.8,131.71Z"/></g></g></svg>