<svg xmlns="http://www.w3.org/2000/svg" viewBox="0 0 275.99 302.25"><defs><style>.cls-1{fill:#ef476f;}</style></defs><title>Fichier 9</title><g id="Calque_2" data-name="Calque 2"><g id="Phone_Services" data-name="Phone Services"><path class="cls-1" d="M276,134.21a262.8,262.8,0,0,1-4.1,38c-.73,3.88-1.55,7.74-2.49,11.56-5.6,22.92-15.1,44.77-29.86,62.4-2.64,2.94-5.36,5.75-8.16,8.46-16.8,16.22-36.45,28.42-56.89,38.66a82.22,82.22,0,0,1-12,4.14c-22.82,6.59-47.57,7.73-69-5.6-14-9.14-25.48-20.19-41.41-24.09a88.67,88.67,0,0,1-8.62-3.09,53.87,53.87,0,0,1-8.32-4.43c-24-16-22.53-46.85-25.11-72.37A79.83,79.83,0,0,0,8,175.76c-.85-3.79-1.72-7.62-2.53-11.47s-1.58-7.73-2.26-11.64c-5-23-6.09-48.93,10.53-67.21q3.69-4.2,7-8.53c8.56-12,14.1-25.76,18.9-39.85,5.17-16,20.68-22.47,35.08-26.28,33.24-8,67.58-18.28,99-2.6,4,1.81,7.84,3.82,11.65,5.93s7.51,4.34,11.12,6.56c3,1.86,6,3.86,8.92,6a244.88,244.88,0,0,1,24.53,21.13c3.07,3,6,6.15,8.77,9.39,8.38,9.72,15.81,20.3,23.49,30.61a85,85,0,0,1,6.27,11.68,82.67,82.67,0,0,1,6.74,26.42Q275.71,130,276,134.21Z"/></g></g></svg>