<svg xmlns="http://www.w3.org/2000/svg" viewBox="0 0 76.72 75.51"><defs><style>.cls-1{fill:#ef476f;}</style></defs><title>Fichier 6</title><g id="Calque_2" data-name="Calque 2"><g id="Phone_Services" data-name="Phone Services"><path class="cls-1" d="M75.26,30.08c-.14,0-3.61.75-6.54,1.63-3.91,1.18-6.16,3.65-6.16,6.79V52.65H52.64a4.45,4.45,0,0,0-4.44,4.44V75.51h2.42V57.09a2,2,0,0,1,2-2H65V38.5c0-2.73,2.78-4,4.44-4.47s3.6-1,4.88-1.25V56.31a5.26,5.26,0,0,1-5.25,5.25H55.64l-1.76,14h2.41L57.77,64H69.05a7.68,7.68,0,0,0,7.67-7.67V29.78Z"/><path class="cls-1" d="M69.69,11.17h0a7,7,0,0,0-7,6.76L59.28,25.7h3.39v4h6.7a7.36,7.36,0,0,0,7.35-7.35v-4.2A7,7,0,0,0,69.69,11.17ZM74.3,22.39a4.93,4.93,0,0,1-4.93,4.93H65.09v-4H63l2.11-4.84v-.25a4.6,4.6,0,0,1,4.6-4.6h0a4.61,4.61,0,0,1,4.61,4.6v4.2Z"/><path class="cls-1" d="M24.08,52.65H14.16V38.5c0-3.14-2.25-5.61-6.16-6.79-2.93-.88-6.4-1.6-6.54-1.63L0,29.78V56.31A7.68,7.68,0,0,0,7.67,64H19l1.48,11.53h2.4l-1.75-14H7.67a5.26,5.26,0,0,1-5.25-5.25V32.78c1.28.29,3.2.75,4.88,1.25s4.44,1.74,4.44,4.47V55.08H24.08a2,2,0,0,1,2,2V75.51h2.43V57.09A4.46,4.46,0,0,0,24.08,52.65Z"/><path class="cls-1" d="M14.05,17.93a7,7,0,0,0-7-6.76H7a7,7,0,0,0-7,7v4.2a7.36,7.36,0,0,0,7.35,7.35h6.7v-4h3.39Zm-2.42,5.35v4H7.35a4.93,4.93,0,0,1-4.93-4.93v-4.2A4.61,4.61,0,0,1,7,13.59H7a4.61,4.61,0,0,1,4.6,4.6v.25l2.11,4.84Z"/><path class="cls-1" d="M18.17,40.38v7.27h17V75.51h2.42V47.65H40V75.51h2.43V47.65H58.55V40.38Zm38,4.84H20.59V42.8H56.13v2.42Z"/><path class="cls-1" d="M54.75,12.61V6.46H48V0H19.7V6.15l-5.87,7.17H19.7v5.25h5.07V16.15H22.13V10.9H19L22.13,7V2.42H45.55v4H26.49V25H54.75V19.79h5.87Zm-2.42,4.75v5.25H28.91v-4H48V10.44H45.55v5.71H28.91V8.88H52.33v4.59l3.18,3.89Z"/><rect class="cls-1" x="30.36" y="31.66" width="2.42" height="2.42"/><rect class="cls-1" x="37.15" y="31.66" width="2.42" height="2.42"/><rect class="cls-1" x="43.93" y="31.66" width="2.42" height="2.42"/></g></g></svg>