<svg xmlns="http://www.w3.org/2000/svg" viewBox="0 0 74.11 74.67"><defs><style>.cls-1{fill:#ef476f;}</style></defs><title>Fichier 3</title><g id="Calque_2" data-name="Calque 2"><g id="Phone_Services" data-name="Phone Services"><circle class="cls-1" cx="49" cy="34.42" r="1.46"/><path class="cls-1" d="M49.25,40.67A1.45,1.45,0,0,0,47.6,41.9c-.4,2.69-2.68,4.92-6.09,6-3.65,1.12-8.71.74-11.8-2.62a1.46,1.46,0,0,0-2.15,2,12.83,12.83,0,0,0,7,3.84,15.39,15.39,0,0,0,3,.3,16.41,16.41,0,0,0,4.73-.7c4.51-1.39,7.54-4.5,8.11-8.33A1.46,1.46,0,0,0,49.25,40.67Z"/><path class="cls-1" d="M69.52,27.77A18.13,18.13,0,0,0,58.81,21.9a82.65,82.65,0,0,0,10.45-8.14c3.95-3.77,5.28-6.42,4.17-8.33-1.23-2.14-4.79-2.12-11.19,0a112.22,112.22,0,0,0-19,9c-1.18.68-2.35,1.38-3.49,2.08A7.83,7.83,0,0,1,41.35,9a5.59,5.59,0,0,0,.82-5.89A5.91,5.91,0,0,0,36.64,0h-.07a36.16,36.16,0,0,0-24.5,9.89A36.71,36.71,0,0,0,.15,33.68a37.45,37.45,0,0,0,37.19,41,39.75,39.75,0,0,0,15.61-3,35.33,35.33,0,0,0,11.51-7.84,34.65,34.65,0,0,0,7.11-10.64A30.87,30.87,0,0,0,74.1,41.62,20.33,20.33,0,0,0,69.52,27.77ZM39.94,19.83c1.54-1,3.15-1.94,4.78-2.88A112.19,112.19,0,0,1,62.42,8.5c5.62-2,7.91-1.86,8.45-1.61-.05.34-.47,1.85-4.15,5.25a92.31,92.31,0,0,1-12.66,9.38c-1.6,1-3.28,2-5,3-2.33,1.34-4.66,2.6-6.94,3.75A22.3,22.3,0,0,0,38,21.07Zm-.44,9.75a74.55,74.55,0,0,1-10.91,4.3,7.49,7.49,0,0,0-.83-2.16A7.36,7.36,0,0,0,26.39,30a75.92,75.92,0,0,1,9.18-7.29,19.5,19.5,0,0,1,2.3,3.18A18.67,18.67,0,0,1,39.5,29.58Zm31.69,12C71,56.09,58,71.76,37.34,71.76A34.56,34.56,0,0,1,3.05,33.93c1.48-17.1,16.51-31,33.52-31h.07a3,3,0,0,1,2.9,1.46,2.69,2.69,0,0,1-.48,2.82,10.68,10.68,0,0,0-1.8,10.88c-.79.51-1.55,1-2.3,1.52h0a79.1,79.1,0,0,0-11.16,8.86,7.29,7.29,0,0,0-6,.59c-3,1.75-7,9.91-7.78,11.53a1.47,1.47,0,0,0,.06,1.35,1.45,1.45,0,0,0,1.14.72c.81.07,3.1.23,5.65.23,3.09,0,6.56-.24,8.22-1.2a7.26,7.26,0,0,0,3.48-4.77,76.74,76.74,0,0,0,13.31-5.24c2.84-1.38,5.75-2.93,8.67-4.62,1.48-.85,2.94-1.73,4.36-2.62h0C67.1,24.78,71.3,33.52,71.19,41.58ZM25.82,35.64a4.39,4.39,0,0,1-2.19,3.52c-1.37.79-6.11.9-10,.72,1.79-3.46,4.25-7.5,5.63-8.3a4.34,4.34,0,0,1,4.22-.09,4.39,4.39,0,0,1,2.34,4.15Z"/><path class="cls-1" d="M25.67,9a5.84,5.84,0,1,0,5.83,5.83A5.84,5.84,0,0,0,25.67,9Zm0,8.75a2.92,2.92,0,1,1,2.91-2.92A2.92,2.92,0,0,1,25.67,17.77Z"/><path class="cls-1" d="M18.37,48.21A5.84,5.84,0,1,0,24.21,54,5.84,5.84,0,0,0,18.37,48.21Zm0,8.75A2.92,2.92,0,1,1,21.29,54,2.92,2.92,0,0,1,18.37,57Z"/><path class="cls-1" d="M33,57a5.84,5.84,0,1,0,5.83,5.83A5.84,5.84,0,0,0,33,57Zm0,8.75a2.92,2.92,0,1,1,2.92-2.92A2.92,2.92,0,0,1,33,65.71Z"/><path class="cls-1" d="M50.46,54a5.84,5.84,0,1,0,5.83,5.84A5.84,5.84,0,0,0,50.46,54Zm0,8.75a2.92,2.92,0,1,1,2.92-2.91A2.91,2.91,0,0,1,50.46,62.79Z"/><path class="cls-1" d="M62.13,39.46A5.84,5.84,0,1,0,68,45.29,5.84,5.84,0,0,0,62.13,39.46Zm0,8.75A2.92,2.92,0,1,1,65,45.29,2.92,2.92,0,0,1,62.13,48.21Z"/></g></g></svg>