<svg xmlns="http://www.w3.org/2000/svg" viewBox="0 0 60.43 75.54"><defs><style>.cls-1{fill:#ef476f;}</style></defs><title>Fichier 4</title><g id="Calque_2" data-name="Calque 2"><g id="Phone_Services" data-name="Phone Services"><path class="cls-1" d="M54.14,0H6.29A6.29,6.29,0,0,0,0,6.29v34a6.29,6.29,0,0,0,6.29,6.29H23.51l-1.8,6.3H17.63V55.4H42.81V52.88H38.72l-1.8-6.3H54.14a6.29,6.29,0,0,0,6.29-6.29v-34A6.29,6.29,0,0,0,54.14,0ZM24.33,52.88l1.8-6.3H34.3l1.8,6.3ZM57.91,40.29a3.77,3.77,0,0,1-3.77,3.77H6.29a3.77,3.77,0,0,1-3.77-3.77V37.77H57.91Zm0-5H2.52v-29A3.77,3.77,0,0,1,6.29,2.52H54.14a3.77,3.77,0,0,1,3.77,3.77Z"/><path class="cls-1" d="M40.29,57.91H5a1.26,1.26,0,0,0-1.26,1.26V74.28A1.25,1.25,0,0,0,5,75.54H40.29a1.26,1.26,0,0,0,1.26-1.26V59.17A1.27,1.27,0,0,0,40.29,57.91ZM39,73H6.29V60.43H39Z"/><rect class="cls-1" x="8.81" y="67.99" width="2.52" height="2.52"/><rect class="cls-1" x="8.81" y="62.95" width="2.52" height="2.52"/><rect class="cls-1" x="13.85" y="62.95" width="2.52" height="2.52"/><rect class="cls-1" x="18.88" y="62.95" width="2.52" height="2.52"/><rect class="cls-1" x="28.96" y="62.95" width="2.52" height="2.52"/><rect class="cls-1" x="23.92" y="62.95" width="2.52" height="2.52"/><rect class="cls-1" x="33.99" y="67.99" width="2.52" height="2.52"/><rect class="cls-1" x="33.99" y="62.95" width="2.52" height="2.52"/><rect class="cls-1" x="13.85" y="67.99" width="17.63" height="2.52"/><path class="cls-1" d="M50.36,57.91a6.3,6.3,0,0,0-6.3,6.3v5a6.3,6.3,0,1,0,12.59,0v-5A6.29,6.29,0,0,0,50.36,57.91Zm3.78,11.33a3.78,3.78,0,0,1-7.56,0v-5a3.78,3.78,0,0,1,7.56,0Z"/><rect class="cls-1" x="49.1" y="62.95" width="2.52" height="2.52"/><rect class="cls-1" x="21.05" y="18.91" width="18.32" height="2.52" transform="translate(2.51 43.66) rotate(-74.03)"/><path class="cls-1" d="M23.47,14.82l-1.61-1.94-7.56,6.3A1.26,1.26,0,0,0,14.14,21a1.21,1.21,0,0,0,.16.16l7.56,6.3,1.61-1.94-6.4-5.33Z"/><path class="cls-1" d="M46.29,19.34a1.21,1.21,0,0,0-.16-.16l-7.55-6.3L37,14.82l6.4,5.32L37,25.47l1.62,1.94,7.55-6.3A1.25,1.25,0,0,0,46.29,19.34Z"/></g></g></svg>