<svg xmlns="http://www.w3.org/2000/svg" viewBox="0 0 76.79 75.51"><defs><style>.cls-1{fill:#ef476f;}</style></defs><title>Fichier 7</title><g id="Calque_2" data-name="Calque 2"><g id="Phone_Services" data-name="Phone Services"><path class="cls-1" d="M13.44,7.68a5.76,5.76,0,1,0,5.76,5.76A5.76,5.76,0,0,0,13.44,7.68Zm0,9a3.2,3.2,0,1,1,3.2-3.2A3.2,3.2,0,0,1,13.44,16.64Z"/><circle class="cls-1" cx="63.99" cy="11.52" r="1.28"/><circle class="cls-1" cx="58.87" cy="11.52" r="1.28"/><circle class="cls-1" cx="66.55" cy="15.36" r="1.28"/><circle class="cls-1" cx="61.43" cy="15.36" r="1.28"/><circle class="cls-1" cx="53.75" cy="11.52" r="1.28"/><circle class="cls-1" cx="56.31" cy="15.36" r="1.28"/><circle class="cls-1" cx="48.63" cy="11.52" r="1.28"/><circle class="cls-1" cx="51.19" cy="15.36" r="1.28"/><circle class="cls-1" cx="43.51" cy="11.52" r="1.28"/><circle class="cls-1" cx="46.07" cy="15.36" r="1.28"/><path class="cls-1" d="M76.79,21V5.9A5.91,5.91,0,0,0,70.89,0H5.9A5.91,5.91,0,0,0,0,5.9V21a5.86,5.86,0,0,0,2.27,4.61A5.89,5.89,0,0,0,0,30.21V45.29a5.88,5.88,0,0,0,2.27,4.62A5.88,5.88,0,0,0,0,54.53V69.61a5.91,5.91,0,0,0,5.9,5.9h65a5.91,5.91,0,0,0,5.9-5.9V54.53a5.86,5.86,0,0,0-2.28-4.62,5.86,5.86,0,0,0,2.28-4.62V30.21a5.84,5.84,0,0,0-2.28-4.61A5.86,5.86,0,0,0,76.79,21ZM74.23,54.53V69.61A3.35,3.35,0,0,1,70.89,73H5.9a3.35,3.35,0,0,1-3.34-3.34V54.53A3.35,3.35,0,0,1,5.9,51.19h65A3.35,3.35,0,0,1,74.23,54.53Zm0-24.32V45.29a3.35,3.35,0,0,1-3.34,3.34H5.9a3.35,3.35,0,0,1-3.34-3.34V30.21A3.34,3.34,0,0,1,5.9,26.88h65A3.34,3.34,0,0,1,74.23,30.21ZM5.9,24.32A3.35,3.35,0,0,1,2.56,21V5.9A3.35,3.35,0,0,1,5.9,2.56h65A3.35,3.35,0,0,1,74.23,5.9V21a3.34,3.34,0,0,1-3.34,3.33H5.9Z"/><path class="cls-1" d="M13.44,43.51a5.76,5.76,0,1,0-5.76-5.76A5.77,5.77,0,0,0,13.44,43.51Zm0-9a3.2,3.2,0,1,1-3.2,3.2A3.21,3.21,0,0,1,13.44,34.55Z"/><circle class="cls-1" cx="63.99" cy="35.83" r="1.28"/><circle class="cls-1" cx="58.87" cy="35.83" r="1.28"/><circle class="cls-1" cx="66.55" cy="39.67" r="1.28"/><circle class="cls-1" cx="61.43" cy="39.67" r="1.28"/><circle class="cls-1" cx="53.75" cy="35.83" r="1.28"/><circle class="cls-1" cx="56.31" cy="39.67" r="1.28"/><circle class="cls-1" cx="48.63" cy="35.83" r="1.28"/><circle class="cls-1" cx="51.19" cy="39.67" r="1.28"/><circle class="cls-1" cx="43.51" cy="35.83" r="1.28"/><circle class="cls-1" cx="46.07" cy="39.67" r="1.28"/><path class="cls-1" d="M13.44,67.83a5.76,5.76,0,1,0-5.76-5.76A5.77,5.77,0,0,0,13.44,67.83Zm0-9a3.2,3.2,0,1,1-3.2,3.2A3.2,3.2,0,0,1,13.44,58.87Z"/><circle class="cls-1" cx="63.99" cy="60.15" r="1.28"/><circle class="cls-1" cx="58.87" cy="60.15" r="1.28"/><circle class="cls-1" cx="66.55" cy="63.99" r="1.28"/><circle class="cls-1" cx="61.43" cy="63.99" r="1.28"/><circle class="cls-1" cx="53.75" cy="60.15" r="1.28"/><circle class="cls-1" cx="56.31" cy="63.99" r="1.28"/><circle class="cls-1" cx="48.63" cy="60.15" r="1.28"/><circle class="cls-1" cx="51.19" cy="63.99" r="1.28"/><circle class="cls-1" cx="43.51" cy="60.15" r="1.28"/><circle class="cls-1" cx="46.07" cy="63.99" r="1.28"/></g></g></svg>