<svg xmlns="http://www.w3.org/2000/svg" viewBox="0 0 82.41 75.54"><defs><style>.cls-1{fill:#ef476f;}</style></defs><title>Fichier 5</title><g id="Calque_2" data-name="Calque 2"><g id="Phone_Services" data-name="Phone Services"><path class="cls-1" d="M0,70.46v5.08H82.41V69.72A12.39,12.39,0,0,0,76,58.84L63.7,52.16A3.63,3.63,0,0,1,61.81,49V44.42a28.74,28.74,0,0,0,4.81-9.94,5.46,5.46,0,0,0,2-4.27V24.72a5.46,5.46,0,0,0-1.37-3.6V13.81a12.3,12.3,0,0,0-2.87-9C61.6,1.63,57,0,50.82,0S40,1.63,37.21,4.85a11.46,11.46,0,0,0-2,3.38,19.27,19.27,0,0,0-6.61-1.17C12.34,7.19,11.8,23.62,11.79,23.79,11.6,33.45,5.63,43,3.06,46.62a4.09,4.09,0,0,0-.58,3.46A4,4,0,0,0,4.77,52.7a15.87,15.87,0,0,0,6.82.92h9a2.75,2.75,0,0,1-1,1.06L6.16,60.5A11.08,11.08,0,0,0,0,70.46ZM22,70a9.6,9.6,0,0,1,5.33-8.63L40.43,54.8a6.33,6.33,0,0,0,1.62-1.17h.06l.31-.39a6.06,6.06,0,0,0,.69-1,.41.41,0,0,0,0-.09,6.86,6.86,0,0,0,.38-.83c0-.07.05-.13.07-.19q.12-.39.21-.81c0-.07,0-.14,0-.21a5.69,5.69,0,0,0,.09-1V43.43L43.61,43a16.84,16.84,0,0,1-1.15-1.48,28.64,28.64,0,0,1-3.89-7.85L38.35,33l-.69-.21a2.74,2.74,0,0,1-1.95-2.6v-5.5a2.7,2.7,0,0,1,.92-2l.45-.41V13.56s0-.2,0-.52v0c0-.1,0-.21,0-.32v-.07c0-.13,0-.27,0-.42v0c0-.15,0-.32,0-.49l0-.22c0-.1,0-.2.05-.31s0-.19,0-.29l.06-.28a9,9,0,0,1,2-3.94c2.28-2.58,6.15-3.88,11.52-3.88s9.26,1.31,11.54,3.91a9.46,9.46,0,0,1,2.2,6.89v8.74l.46.41a2.7,2.7,0,0,1,.92,2v5.5a2.75,2.75,0,0,1-1.27,2.3l-.47.3-.13.55a25.91,25.91,0,0,1-4.68,9.7l-.32.38V49a6.38,6.38,0,0,0,3.32,5.6l12.25,6.68a9.65,9.65,0,0,1,5,8.47v3.07H22Zm-19.23.47A8.35,8.35,0,0,1,7.35,63l13.39-5.79a5.76,5.76,0,0,0,2.44-2.65,2.53,2.53,0,0,0-2.27-3.65H11.45a13.32,13.32,0,0,1-5.59-.71,1.24,1.24,0,0,1-.74-.84,1.35,1.35,0,0,1,.19-1.14c2.71-3.85,9-13.93,9.23-24.35,0-.56.5-13.93,14-14a16.59,16.59,0,0,1,5.89,1.07,11.66,11.66,0,0,0-.11,2.94v7.31A5.47,5.47,0,0,0,33,24.72v5.5a5.44,5.44,0,0,0,3.2,5,31.19,31.19,0,0,0,4.06,8c.34.48.67.92,1,1.3V49.1a3.82,3.82,0,0,1-.13.95c0,.16-.13.32-.19.48s-.1.24-.16.35h-3a2.33,2.33,0,0,0-2.24,1.59,2.27,2.27,0,0,0,.06,1.72l-9.42,4.72A12.3,12.3,0,0,0,19.23,70v2.8H2.75Z"/></g></g></svg>