<svg xmlns="http://www.w3.org/2000/svg" viewBox="0 0 63.62 77.54"><defs><style>.cls-1{fill:#ef476f;stroke:#ef476f;stroke-miterlimit:10;stroke-width:2px;}</style></defs><title>wagFichier 2</title><g id="Calque_2" data-name="Calque 2"><g id="Phone_Services" data-name="Phone Services"><path class="cls-1" d="M54.24,26a.38.38,0,0,1-.36-.27c0-.07-2.12-6.9-14.46-6.9a.36.36,0,0,1-.35-.27c-1.44-4.9-.89-8.22,1.86-11.08,3.37-3.52,8.29-2.53,9.86-2.09V2.5a.36.36,0,0,1,.15-.3.37.37,0,0,1,.32-.06c1.25.37,6.08,4.43,6.08,10.31a.36.36,0,0,1-.09.24l-3.92,4.79,1.28,8.07a.37.37,0,0,1-.29.42ZM39.7,18.07c8.48.07,12.24,3.24,13.83,5.42l-1-6.06a.34.34,0,0,1,.08-.29l4-4.82a12.07,12.07,0,0,0-5.07-9.21V5.88a.37.37,0,0,1-.16.3.37.37,0,0,1-.34,0C51,6.2,45.16,4.11,41.47,8,38.94,10.6,38.42,13.54,39.7,18.07Z"/><path class="cls-1" d="M52.28,12.71a1.92,1.92,0,1,1,1.91-1.92A1.92,1.92,0,0,1,52.28,12.71Zm0-3.09a1.17,1.17,0,0,0,0,2.34,1.17,1.17,0,1,0,0-2.34Z"/><path class="cls-1" d="M1.37,76.54a.38.38,0,0,1-.3-.15A.39.39,0,0,1,1,76L12.66,53.56l-5.77,1.1a.36.36,0,0,1-.39-.54L29.67,11.51C31.16,8.36,35.61,1,44.76,1a15.23,15.23,0,0,1,6.55,1.16.38.38,0,0,1,.22.34V5.88a.37.37,0,0,1-.16.3.37.37,0,0,1-.34,0C51,6.2,45.16,4.11,41.53,8c-2.5,2.66-3,5.58-1.79,10,4.32-.84,7.88-.36,10.58,1.43a10.34,10.34,0,0,1,4.28,6.1v0c1.08,8.08-.66,14.79-5.17,19.94-8.86,10.13-25.86,11.33-33,11.36l-6.31,18a.37.37,0,0,1-.29.24L1.44,76.53Zm12-23.86a.38.38,0,0,1,.3.15.35.35,0,0,1,0,.39L2,75.67l7.41-1.31,6.33-18a.37.37,0,0,1,.35-.25c6.92,0,24-1.08,32.75-11.11,4.36-5,6-11.49,5-19.34a9.77,9.77,0,0,0-4-5.62c-2.6-1.71-6.08-2.13-10.34-1.25a.36.36,0,0,1-.43-.26C37.68,13.61,38.22,10.4,41,7.46c3.32-3.52,8.23-2.53,9.8-2.09V2.74a14.73,14.73,0,0,0-6-1c-8.72,0-13,7.06-14.43,10.1l-22.81,42,5.75-1.1Z"/><path class="cls-1" d="M62.06,17.74H52.94a.37.37,0,0,1-.29-.6l4-4.92a.4.4,0,0,1,.26-.14.39.39,0,0,1,.28.11l5.1,4.92a.37.37,0,0,1,.09.4A.38.38,0,0,1,62.06,17.74ZM53.72,17h7.43L57,13Z"/><path class="cls-1" d="M19.15,51.22l1.66-.36c1.07-.24,2.55-.59,4.33-1.07.89-.23,1.84-.53,2.84-.88s2.08-.72,3.08-1.19a27.59,27.59,0,0,0,3.21-1.54,20.92,20.92,0,0,0,3-2,5.28,5.28,0,0,0,.71-.59l.71-.59c.42-.42.89-.83,1.3-1.31a10.59,10.59,0,0,0,1.13-1.36l.53-.71.24-.36.24-.35c.12-.24.29-.48.41-.71a4,4,0,0,1,.42-.71l.18-.36.17-.36a3.36,3.36,0,0,0,.3-.71l.53-1.42c.12-.47.3-.95.42-1.36s.18-.89.29-1.25.12-.77.18-1.18a6.56,6.56,0,0,0,.12-1c.06-.3.06-.59.12-.89.06-1.07.06-1.66.06-1.66l.95.06s-.06.65-.12,1.72c-.06.3-.06.59-.12.89A6.83,6.83,0,0,1,45.88,31c-.06.35-.18.77-.23,1.18s-.24.83-.36,1.3-.3.89-.47,1.43-.36.95-.6,1.48l-.35.71-.18.36-.18.35c-.12.24-.29.48-.41.77s-.3.48-.48.71-.18.24-.23.36l-.24.35-.54.72a14.49,14.49,0,0,1-1.24,1.36c-.41.47-.89.83-1.36,1.3l-.71.6c-.24.17-.48.35-.77.53a34.27,34.27,0,0,1-3.15,1.95c-1.06.54-2.19,1.07-3.26,1.49S29,48.73,28,49a26.61,26.61,0,0,1-2.9.77c-1.78.42-3.32.77-4.39,1A11.08,11.08,0,0,1,19.15,51.22Z"/><path class="cls-1" d="M19.15,51.59a.36.36,0,0,1-.36-.3.38.38,0,0,1,.29-.44h0a11.62,11.62,0,0,0,1.48-.45l.07,0c1-.18,2.53-.52,4.36-1l.22,0c.83-.23,1.72-.51,2.65-.83l.39-.14a27.1,27.1,0,0,0,2.66-1,25.59,25.59,0,0,0,3.18-1.53,19.51,19.51,0,0,0,3-2,6.33,6.33,0,0,0,.69-.57l.73-.62.41-.39c.29-.28.59-.56.86-.87a13,13,0,0,0,1.1-1.33l1-1.42a3.62,3.62,0,0,1,.2-.34,2.79,2.79,0,0,0,.19-.33,5.84,5.84,0,0,1,.43-.74l.34-.68a3,3,0,0,0,.27-.64l.55-1.46c.06-.25.15-.54.24-.82s.12-.35.16-.51.09-.38.13-.57.1-.46.16-.66l.09-.57.09-.58a7.65,7.65,0,0,0,.11-1,.17.17,0,0,1,0-.07c0-.14,0-.27,0-.41a4,4,0,0,1,.07-.48c0-1,0-1.58,0-1.59A.36.36,0,0,1,45.1,27a.33.33,0,0,1,.27-.1l1,.06a.38.38,0,0,1,.35.4s-.06.65-.12,1.71a3.23,3.23,0,0,0-.06.46c0,.16,0,.32-.07.48s0,.21,0,.32a3.23,3.23,0,0,1-.15.79,4.51,4.51,0,0,1-.09.46c0,.21-.1.44-.13.66-.13.46-.24.88-.36,1.34a9.37,9.37,0,0,1-.3.94q-.09.24-.18.51c-.19.5-.37,1-.61,1.52L43.84,38c-.05.1-.11.2-.17.3a3,3,0,0,0-.23.44.22.22,0,0,1,0,.08l-.22.33c-.07.12-.15.24-.23.36a1.43,1.43,0,0,1-.14.2.57.57,0,0,0-.08.13l-.26.39-.55.73c-.12.14-.23.26-.33.39a9.23,9.23,0,0,1-1,1,8,8,0,0,1-.78.76c-.18.17-.37.34-.56.53l-.74.61a9.46,9.46,0,0,1-.81.57c-.92.64-2,1.31-3.16,2-1.33.67-2.38,1.14-3.3,1.5s-2.08.76-3.17,1.08l-.39.11c-.8.24-1.55.46-2.31.62l-.16,0c-2,.53-3.44.87-4.34,1.07-1.05.24-1.65.36-1.67.36h-.07ZM45.54,29.86a6.39,6.39,0,0,1-.12,1l-.09.59c0,.19-.06.38-.09.59,0,0,0,0,0,.06a5.45,5.45,0,0,0-.15.61,6.23,6.23,0,0,1-.15.62c0,.17-.1.35-.16.54s-.09.28-.14.42l0,0a8,8,0,0,0,.28-.87c.12-.47.24-.89.36-1.31a6.54,6.54,0,0,1,.13-.67c0-.17.07-.33.1-.48a3.62,3.62,0,0,0,.13-.69c0-.12,0-.25,0-.37a3.53,3.53,0,0,0,.06-.42,4,4,0,0,1,.07-.48c0-.56.06-1,.08-1.3h-.19c0,.28,0,.71-.05,1.28,0,.19,0,.33-.06.46S45.57,29.71,45.54,29.86Z"/></g></g></svg>