<svg xmlns="http://www.w3.org/2000/svg" viewBox="0 0 52.23 54.08"><defs><style>.cls-1{fill:#fff;}</style></defs><title>Fichier 2</title><g id="Calque_2" data-name="Calque 2"><g id="Phone_Landing" data-name="Phone Landing"><path class="cls-1" d="M25.15,54.08a26.91,26.91,0,0,1-9.78-1.85L17,48A22.44,22.44,0,1,0,4.28,18.9L0,17.23A27,27,0,0,1,35,1.86a27,27,0,0,1-9.85,52.22Z"/><polygon class="cls-1" points="7.42 10.4 10.29 8.6 24.95 44.94 41.78 8.28 44.64 10.37 25.13 53.06 24.16 53.03 7.42 10.4"/><path class="cls-1" d="M25.49,53.65l-1.72,0-.14-.36L6.71,10.17l3.85-2.43L25,43.49,41.55,7.41l3.81,2.77Zm-.93-1.18h.2L43.93,10.55,42,9.16,24.91,46.39,10,9.45,8.13,10.64Z"/></g></g></svg>