<?xml version="1.0" encoding="utf-8"?>
<!-- Generator: Adobe Illustrator 22.1.0, SVG Export Plug-In . SVG Version: 6.00 Build 0)  -->
<svg version="1.1" id="Calque_1" xmlns="http://www.w3.org/2000/svg" xmlns:xlink="http://www.w3.org/1999/xlink" x="0px" y="0px"
	 viewBox="0 0 52.2 54.1" style="enable-background:new 0 0 52.2 54.1;" xml:space="preserve">
<style type="text/css">
	.st0{fill:#EF476F;}
</style>
<title>Fichier 2</title>
<g id="Calque_2_1_">
	<g id="Phone_Landing">
		<path class="st0" d="M25.1,54.1c-3.3,0-6.7-0.6-9.8-1.8L17,48c11.5,4.5,24.6-1.2,29.1-12.7S44.9,10.7,33.3,6.2
			C21.8,1.7,8.8,7.4,4.3,18.9L0,17.2C5.4,3.3,21-3.6,34.9,1.8c0,0,0,0,0.1,0c13.9,5.3,20.9,20.9,15.6,34.9
			C46.6,47.2,36.4,54.2,25.1,54.1z"/>
		<polygon class="st0" points="7.4,10.4 10.3,8.6 25,44.9 41.8,8.3 44.6,10.4 25.1,53.1 24.2,53 		"/>
		<path class="st0" d="M25.5,53.7h-1.7l-0.1-0.4L6.7,10.2l3.8-2.4L25,43.5L41.5,7.4l3.8,2.8L25.5,53.7z M24.6,52.5h0.2l19.2-41.9
			L42,9.2L24.9,46.4L10,9.4l-1.9,1.2L24.6,52.5z"/>
	</g>
</g>
</svg>
